<svg width="24" height="24" viewBox="0 0 24 24" fill="none" xmlns="http://www.w3.org/2000/svg">
<path d="M18.7499 11.3811L13.0996 16.7626C13.0209 16.8378 12.9273 16.8975 12.8243 16.9383C12.7213 16.979 12.6108 17 12.4993 17C12.3877 17 12.2773 16.979 12.1743 16.9383C12.0713 16.8975 11.9777 16.8378 11.899 16.7626L6.24867 11.3811C6.08945 11.2294 6 11.0238 6 10.8093C6 10.5948 6.08945 10.3892 6.24867 10.2375C6.40789 10.0859 6.62384 10.0007 6.84901 10.0007C7.07418 10.0007 7.29013 10.0859 7.44935 10.2375L12.5 15.0479L17.5506 10.2368C17.7099 10.0852 17.9258 10 18.151 10C18.3762 10 18.5921 10.0852 18.7513 10.2368C18.9105 10.3885 19 10.5942 19 10.8086C19 11.0231 18.9105 11.2288 18.7513 11.3804L18.7499 11.3811Z" fill="#5A57D9"/>
</svg>
