<svg width="40" height="40" viewBox="0 0 40 40" fill="none" xmlns="http://www.w3.org/2000/svg">
<circle cx="20" cy="20" r="20" fill="#E8E6DC"/>
<path d="M18.7976 11C18.3692 12.4174 18.3334 13.9244 18.6939 15.3606C19.0544 16.7967 19.7978 18.1082 20.8448 19.1552C21.8918 20.2022 23.2033 20.9456 24.6394 21.3061C26.0756 21.6666 27.5826 21.6308 29 21.2024C28.5891 22.5535 27.8353 23.7751 26.812 24.7483C25.7887 25.7214 24.5308 26.413 23.1609 26.7557C21.7909 27.0983 20.3555 27.0803 18.9946 26.7034C17.6337 26.3265 16.3935 25.6036 15.395 24.605C14.3964 23.6065 13.6735 22.3663 13.2966 21.0054C12.9197 19.6445 12.9017 18.2091 13.2443 16.8391C13.587 15.4692 14.2786 14.2113 15.2517 13.188C16.2249 12.1647 17.4465 11.4109 18.7976 11Z" stroke="#FAF9F5" stroke-width="2" stroke-linecap="round" stroke-linejoin="round"/>
</svg>