<svg width="24" height="24" viewBox="0 0 24 24" fill="none" xmlns="http://www.w3.org/2000/svg">
<path opacity="0.2" d="M21.75 10.125C21.75 10.4958 21.64 10.8584 21.434 11.1667C21.228 11.475 20.9351 11.7154 20.5925 11.8573C20.2499 11.9992 19.8729 12.0363 19.5092 11.964C19.1455 11.8916 18.8114 11.713 18.5492 11.4508C18.287 11.1886 18.1084 10.8545 18.036 10.4908C17.9637 10.1271 18.0008 9.75008 18.1427 9.40747C18.2846 9.06486 18.525 8.77202 18.8333 8.56599C19.1416 8.35997 19.5042 8.25 19.875 8.25C20.3723 8.25 20.8492 8.44754 21.2008 8.79918C21.5525 9.15081 21.75 9.62772 21.75 10.125ZM6 10.125C6 9.75416 5.89003 9.39165 5.68401 9.08331C5.47798 8.77496 5.18514 8.53464 4.84253 8.39273C4.49992 8.25081 4.12292 8.21368 3.75921 8.28603C3.39549 8.35838 3.0614 8.53695 2.79918 8.79918C2.53695 9.0614 2.35838 9.39549 2.28603 9.75921C2.21368 10.1229 2.25081 10.4999 2.39273 10.8425C2.53464 11.1851 2.77496 11.478 3.08331 11.684C3.39165 11.89 3.75416 12 4.125 12C4.62228 12 5.0992 11.8025 5.45083 11.4508C5.80246 11.0992 6 10.6223 6 10.125ZM8.625 7.5C8.99584 7.5 9.35835 7.39003 9.66669 7.18401C9.97504 6.97798 10.2154 6.68514 10.3573 6.34253C10.4992 5.99992 10.5363 5.62292 10.464 5.25921C10.3916 4.89549 10.213 4.5614 9.95083 4.29918C9.6886 4.03695 9.35451 3.85838 8.9908 3.78603C8.62708 3.71368 8.25008 3.75081 7.90747 3.89273C7.56486 4.03464 7.27202 4.27496 7.066 4.58331C6.85997 4.89165 6.75 5.25416 6.75 5.625C6.75 6.12228 6.94754 6.5992 7.29918 6.95083C7.65081 7.30246 8.12772 7.5 8.625 7.5ZM15.375 7.5C15.7458 7.5 16.1084 7.39003 16.4167 7.18401C16.725 6.97798 16.9654 6.68514 17.1073 6.34253C17.2492 5.99992 17.2863 5.62292 17.214 5.25921C17.1416 4.89549 16.963 4.5614 16.7008 4.29918C16.4386 4.03695 16.1045 3.85838 15.7408 3.78603C15.3771 3.71368 15.0001 3.75081 14.6575 3.89273C14.3149 4.03464 14.022 4.27496 13.816 4.58331C13.61 4.89165 13.5 5.25416 13.5 5.625C13.5 6.12228 13.6975 6.5992 14.0492 6.95083C14.4008 7.30246 14.8777 7.5 15.375 7.5ZM17.1788 14.6109C16.2385 14.0903 15.5419 13.2193 15.2409 12.1875C15.037 11.4857 14.6108 10.8691 14.0263 10.4303C13.4419 9.9915 12.7308 9.75428 12 9.75428C11.2692 9.75428 10.5581 9.9915 9.97366 10.4303C9.38922 10.8691 8.963 11.4857 8.75906 12.1875C8.45887 13.2209 7.76231 14.0937 6.82125 14.6156C6.13809 14.9799 5.62219 15.5941 5.38144 16.33C5.14069 17.0658 5.19373 17.8662 5.52947 18.5638C5.8652 19.2614 6.45763 19.8022 7.18289 20.0732C7.90814 20.3441 8.71005 20.3241 9.42094 20.0175C11.073 19.3402 12.9252 19.3402 14.5772 20.0175C15.2881 20.3241 16.09 20.3441 16.8152 20.0732C17.5405 19.8022 18.1329 19.2614 18.4687 18.5638C18.8044 17.8662 18.8574 17.0658 18.6167 16.33C18.3759 15.5941 17.86 14.9799 17.1769 14.6156L17.1788 14.6109Z" fill="#FAF9F5"/>
<path d="M19.875 7.5C19.3558 7.5 18.8483 7.65395 18.4166 7.94239C17.985 8.23083 17.6485 8.6408 17.4498 9.12046C17.2511 9.60011 17.1992 10.1279 17.3004 10.6371C17.4017 11.1463 17.6517 11.614 18.0188 11.9812C18.386 12.3483 18.8537 12.5983 19.3629 12.6996C19.8721 12.8008 20.3999 12.7489 20.8795 12.5502C21.3592 12.3515 21.7692 12.0151 22.0576 11.5834C22.346 11.1517 22.5 10.6442 22.5 10.125C22.5 9.42881 22.2234 8.76113 21.7312 8.26885C21.2389 7.77656 20.5712 7.5 19.875 7.5ZM19.875 11.25C19.6525 11.25 19.435 11.184 19.25 11.0604C19.065 10.9368 18.9208 10.7611 18.8356 10.5555C18.7505 10.35 18.7282 10.1238 18.7716 9.90552C18.815 9.68729 18.9222 9.48684 19.0795 9.32951C19.2368 9.17217 19.4373 9.06503 19.6555 9.02162C19.8738 8.97821 20.1 9.00049 20.3055 9.08564C20.5111 9.17078 20.6868 9.31498 20.8104 9.49998C20.934 9.68499 21 9.9025 21 10.125C21 10.4234 20.8815 10.7095 20.6705 10.9205C20.4595 11.1315 20.1734 11.25 19.875 11.25ZM6.75 10.125C6.75 9.60582 6.59605 9.09831 6.30761 8.66663C6.01917 8.23495 5.6092 7.8985 5.12955 7.69982C4.64989 7.50114 4.12209 7.44915 3.61289 7.55044C3.10369 7.65173 2.63596 7.90173 2.26885 8.26885C1.90173 8.63596 1.65173 9.10369 1.55044 9.61289C1.44915 10.1221 1.50114 10.6499 1.69982 11.1295C1.8985 11.6092 2.23495 12.0192 2.66663 12.3076C3.09831 12.596 3.60583 12.75 4.125 12.75C4.82119 12.75 5.48887 12.4734 5.98116 11.9812C6.47344 11.4889 6.75 10.8212 6.75 10.125ZM4.125 11.25C3.9025 11.25 3.68499 11.184 3.49998 11.0604C3.31498 10.9368 3.17079 10.7611 3.08564 10.5555C3.00049 10.35 2.97821 10.1238 3.02162 9.90552C3.06503 9.68729 3.17217 9.48684 3.32951 9.32951C3.48684 9.17217 3.6873 9.06503 3.90552 9.02162C4.12375 8.97821 4.34995 9.00049 4.55552 9.08564C4.76109 9.17078 4.93679 9.31498 5.0604 9.49998C5.18402 9.68499 5.25 9.9025 5.25 10.125C5.25 10.4234 5.13147 10.7095 4.9205 10.9205C4.70952 11.1315 4.42337 11.25 4.125 11.25ZM8.625 8.25C9.14418 8.25 9.65169 8.09605 10.0834 7.80761C10.5151 7.51917 10.8515 7.1092 11.0502 6.62954C11.2489 6.14989 11.3008 5.62209 11.1996 5.11289C11.0983 4.60369 10.8483 4.13596 10.4812 3.76885C10.114 3.40173 9.64631 3.15173 9.13711 3.05044C8.62791 2.94915 8.10011 3.00114 7.62046 3.19982C7.1408 3.3985 6.73083 3.73495 6.44239 4.16663C6.15395 4.59831 6 5.10583 6 5.625C6 6.32119 6.27656 6.98887 6.76885 7.48116C7.26113 7.97344 7.92881 8.25 8.625 8.25ZM8.625 4.5C8.84751 4.5 9.06501 4.56598 9.25002 4.6896C9.43502 4.81321 9.57922 4.98892 9.66437 5.19448C9.74951 5.40005 9.77179 5.62625 9.72838 5.84448C9.68498 6.06271 9.57783 6.26316 9.4205 6.4205C9.26316 6.57783 9.06271 6.68498 8.84448 6.72838C8.62625 6.77179 8.40005 6.74951 8.19448 6.66437C7.98892 6.57922 7.81321 6.43502 7.6896 6.25002C7.56598 6.06501 7.5 5.84751 7.5 5.625C7.5 5.32663 7.61853 5.04048 7.82951 4.82951C8.04048 4.61853 8.32663 4.5 8.625 4.5ZM15.375 8.25C15.8942 8.25 16.4017 8.09605 16.8334 7.80761C17.2651 7.51917 17.6015 7.1092 17.8002 6.62954C17.9989 6.14989 18.0508 5.62209 17.9496 5.11289C17.8483 4.60369 17.5983 4.13596 17.2312 3.76885C16.864 3.40173 16.3963 3.15173 15.8871 3.05044C15.3779 2.94915 14.8501 3.00114 14.3705 3.19982C13.8908 3.3985 13.4808 3.73495 13.1924 4.16663C12.904 4.59831 12.75 5.10583 12.75 5.625C12.75 6.32119 13.0266 6.98887 13.5188 7.48116C14.0111 7.97344 14.6788 8.25 15.375 8.25ZM15.375 4.5C15.5975 4.5 15.815 4.56598 16 4.6896C16.185 4.81321 16.3292 4.98892 16.4144 5.19448C16.4995 5.40005 16.5218 5.62625 16.4784 5.84448C16.435 6.06271 16.3278 6.26316 16.1705 6.4205C16.0132 6.57783 15.8127 6.68498 15.5945 6.72838C15.3762 6.77179 15.1501 6.74951 14.9445 6.66437C14.7389 6.57922 14.5632 6.43502 14.4396 6.25002C14.316 6.06501 14.25 5.84751 14.25 5.625C14.25 5.32663 14.3685 5.04048 14.5795 4.82951C14.7905 4.61853 15.0766 4.5 15.375 4.5ZM17.5425 13.9556C17.1615 13.7455 16.8258 13.4622 16.5544 13.1222C16.283 12.7821 16.0813 12.3918 15.9609 11.9738C15.7116 11.1162 15.1906 10.3627 14.4763 9.82654C13.7621 9.29039 12.8931 9.00053 12 9.00053C11.1069 9.00053 10.2379 9.29039 9.52366 9.82654C8.8094 10.3627 8.28843 11.1162 8.03906 11.9738C7.79818 12.815 7.23345 13.5264 6.46875 13.9519C5.73518 14.3488 5.15487 14.979 4.81962 15.7427C4.48437 16.5065 4.41331 17.3602 4.61768 18.1688C4.82205 18.9775 5.29018 19.6949 5.94804 20.2077C6.60589 20.7205 7.41592 20.9993 8.25 21C8.74984 21.0014 9.24479 20.9016 9.705 20.7066C11.1722 20.1015 12.8193 20.1015 14.2866 20.7066C15.1753 21.0931 16.1791 21.1205 17.0876 20.7832C17.9961 20.4458 18.7387 19.7698 19.1598 18.8969C19.5808 18.0241 19.6476 17.0221 19.3461 16.1011C19.0446 15.18 18.3982 14.4115 17.5425 13.9566V13.9556ZM15.75 19.5C15.4455 19.5003 15.1441 19.4387 14.8641 19.3191C13.0271 18.5603 10.9644 18.5603 9.1275 19.3191C8.59369 19.5489 7.99164 19.5633 7.44747 19.3592C6.9033 19.155 6.45923 18.7483 6.20827 18.224C5.95731 17.6998 5.91893 17.0988 6.10118 16.5469C6.28342 15.9951 6.67215 15.5351 7.18594 15.2634C7.73835 14.9584 8.22521 14.5474 8.61868 14.054C9.01216 13.5607 9.30452 12.9946 9.47906 12.3881C9.63756 11.8421 9.96904 11.3623 10.4237 11.0209C10.8783 10.6795 11.4315 10.4949 12 10.4949C12.5685 10.4949 13.1217 10.6795 13.5763 11.0209C14.031 11.3623 14.3624 11.8421 14.5209 12.3881C14.696 12.9957 14.9893 13.5627 15.3839 14.0568C15.7786 14.5508 16.2668 14.9621 16.8206 15.2672C17.263 15.5044 17.6133 15.8828 17.8158 16.342C18.0184 16.8013 18.0616 17.3151 17.9385 17.8017C17.8154 18.2884 17.5331 18.7199 17.1366 19.0276C16.74 19.3353 16.2519 19.5016 15.75 19.5Z" fill="#FAF9F5"/>
</svg>
