<svg width="10" height="12" viewBox="0 0 10 12" fill="none" xmlns="http://www.w3.org/2000/svg">
<path d="M0 0.490714V11.5057C0.00163266 11.5936 0.026412 11.6795 0.0718393 11.7548C0.117267 11.8301 0.181736 11.892 0.258747 11.9344C0.335758 11.9768 0.422588 11.9982 0.510481 11.9963C0.598375 11.9945 0.684225 11.9695 0.759375 11.9238L9.76437 6.41634C9.83631 6.3728 9.89579 6.31145 9.93707 6.2382C9.97836 6.16495 10 6.08229 10 5.99821C10 5.91413 9.97836 5.83148 9.93707 5.75823C9.89579 5.68498 9.83631 5.62363 9.76437 5.58009L0.759375 0.0725893C0.684225 0.0269691 0.598375 0.00196974 0.510481 0.000111708C0.422588 -0.00174633 0.335758 0.0196028 0.258747 0.0620064C0.181736 0.10441 0.117267 0.166369 0.0718393 0.241635C0.026412 0.316902 0.00163266 0.402816 0 0.490714Z" fill="#FAF9F5"/>
</svg>
