<svg width="40" height="40" viewBox="0 0 40 40" fill="none" xmlns="http://www.w3.org/2000/svg">
<circle cx="20" cy="20" r="20" fill="#E8E6DC"/>
<path d="M18.8 10.8V9.2C18.8 8.88174 18.9264 8.57652 19.1515 8.35147C19.3765 8.12643 19.6817 8 20 8C20.3183 8 20.6235 8.12643 20.8485 8.35147C21.0736 8.57652 21.2 8.88174 21.2 9.2V10.8C21.2 11.1183 21.0736 11.4235 20.8485 11.6485C20.6235 11.8736 20.3183 12 20 12C19.6817 12 19.3765 11.8736 19.1515 11.6485C18.9264 11.4235 18.8 11.1183 18.8 10.8ZM26.8 20C26.8 21.3449 26.4012 22.6596 25.654 23.7779C24.9068 24.8961 23.8448 25.7677 22.6022 26.2824C21.3597 26.7971 19.9925 26.9317 18.6734 26.6693C17.3543 26.407 16.1427 25.7593 15.1917 24.8083C14.2407 23.8573 13.593 22.6457 13.3307 21.3266C13.0683 20.0075 13.2029 18.6403 13.7176 17.3978C14.2323 16.1552 15.1039 15.0932 16.2221 14.346C17.3404 13.5988 18.6551 13.2 20 13.2C21.8029 13.2019 23.5314 13.9189 24.8063 15.1937C26.0811 16.4686 26.7981 18.1971 26.8 20ZM24.4 20C24.4 19.1298 24.1419 18.2791 23.6585 17.5555C23.175 16.8319 22.4878 16.268 21.6838 15.9349C20.8798 15.6019 19.9951 15.5148 19.1416 15.6845C18.2881 15.8543 17.5041 16.2734 16.8887 16.8887C16.2734 17.5041 15.8543 18.2881 15.6845 19.1416C15.5148 19.9951 15.6019 20.8798 15.9349 21.6838C16.268 22.4878 16.8319 23.175 17.5555 23.6585C18.2791 24.1419 19.1298 24.4 20 24.4C21.1665 24.3987 22.2849 23.9347 23.1098 23.1098C23.9347 22.2849 24.3987 21.1665 24.4 20ZM12.351 14.049C12.4626 14.1606 12.5951 14.2492 12.741 14.3096C12.8868 14.37 13.0431 14.4011 13.201 14.4011C13.3589 14.4011 13.5152 14.37 13.661 14.3096C13.8069 14.2492 13.9394 14.1606 14.051 14.049C14.1626 13.9374 14.2512 13.8049 14.3116 13.659C14.372 13.5132 14.4031 13.3569 14.4031 13.199C14.4031 13.0411 14.372 12.8848 14.3116 12.739C14.2512 12.5931 14.1626 12.4606 14.051 12.349L12.851 11.149C12.6256 10.9236 12.3198 10.7969 12.001 10.7969C11.6822 10.7969 11.3764 10.9236 11.151 11.149C10.9256 11.3744 10.7989 11.6802 10.7989 11.999C10.7989 12.3178 10.9256 12.6236 11.151 12.849L12.351 14.049ZM12.351 25.949L11.151 27.149C11.0394 27.2606 10.9508 27.3931 10.8904 27.539C10.83 27.6848 10.7989 27.8411 10.7989 27.999C10.7989 28.1569 10.83 28.3132 10.8904 28.459C10.9508 28.6049 11.0394 28.7374 11.151 28.849C11.3764 29.0744 11.6822 29.2011 12.001 29.2011C12.1589 29.2011 12.3152 29.17 12.461 29.1096C12.6069 29.0492 12.7394 28.9606 12.851 28.849L14.051 27.649C14.2764 27.4236 14.4031 27.1178 14.4031 26.799C14.4031 26.4802 14.2764 26.1744 14.051 25.949C13.8256 25.7236 13.5198 25.5969 13.201 25.5969C12.8822 25.5969 12.5764 25.7236 12.351 25.949ZM26.8 14.4C26.9576 14.4001 27.1137 14.3692 27.2594 14.309C27.4051 14.2487 27.5375 14.1604 27.649 14.049L28.849 12.849C28.9606 12.7374 29.0492 12.6049 29.1096 12.459C29.17 12.3132 29.2011 12.1569 29.2011 11.999C29.2011 11.8411 29.17 11.6848 29.1096 11.539C29.0492 11.3931 28.9606 11.2606 28.849 11.149C28.7374 11.0374 28.6049 10.9488 28.459 10.8884C28.3132 10.828 28.1569 10.7969 27.999 10.7969C27.8411 10.7969 27.6848 10.828 27.539 10.8884C27.3931 10.9488 27.2606 11.0374 27.149 11.149L25.949 12.349C25.7802 12.5168 25.6651 12.7311 25.6184 12.9645C25.5717 13.198 25.5954 13.44 25.6867 13.6599C25.7779 13.8798 25.9325 14.0676 26.1307 14.1994C26.329 14.3311 26.5619 14.401 26.8 14.4ZM27.649 25.951C27.4236 25.7256 27.1178 25.5989 26.799 25.5989C26.4802 25.5989 26.1744 25.7256 25.949 25.951C25.7236 26.1764 25.5969 26.4822 25.5969 26.801C25.5969 27.1198 25.7236 27.4256 25.949 27.651L27.149 28.851C27.3744 29.0764 27.6802 29.2031 27.999 29.2031C28.3178 29.2031 28.6236 29.0764 28.849 28.851C29.0744 28.6256 29.2011 28.3198 29.2011 28.001C29.2011 27.6822 29.0744 27.3764 28.849 27.151L27.649 25.951ZM12 20C12 19.6817 11.8736 19.3765 11.6485 19.1515C11.4235 18.9264 11.1183 18.8 10.8 18.8H9.2C8.88174 18.8 8.57652 18.9264 8.35147 19.1515C8.12643 19.3765 8 19.6817 8 20C8 20.3183 8.12643 20.6235 8.35147 20.8485C8.57652 21.0736 8.88174 21.2 9.2 21.2H10.8C11.1183 21.2 11.4235 21.0736 11.6485 20.8485C11.8736 20.6235 12 20.3183 12 20ZM20 28C19.6817 28 19.3765 28.1264 19.1515 28.3515C18.9264 28.5765 18.8 28.8817 18.8 29.2V30.8C18.8 31.1183 18.9264 31.4235 19.1515 31.6485C19.3765 31.8736 19.6817 32 20 32C20.3183 32 20.6235 31.8736 20.8485 31.6485C21.0736 31.4235 21.2 31.1183 21.2 30.8V29.2C21.2 28.8817 21.0736 28.5765 20.8485 28.3515C20.6235 28.1264 20.3183 28 20 28ZM30.8 18.8H29.2C28.8817 18.8 28.5765 18.9264 28.3515 19.1515C28.1264 19.3765 28 19.6817 28 20C28 20.3183 28.1264 20.6235 28.3515 20.8485C28.5765 21.0736 28.8817 21.2 29.2 21.2H30.8C31.1183 21.2 31.4235 21.0736 31.6485 20.8485C31.8736 20.6235 32 20.3183 32 20C32 19.6817 31.8736 19.3765 31.6485 19.1515C31.4235 18.9264 31.1183 18.8 30.8 18.8Z" fill="#FAF9F5"/>
</svg>